<svg width="32" height="32" viewBox="0 0 32 32" xmlns="http://www.w3.org/2000/svg" xmlns:xlink="http://www.w3.org/1999/xlink" id="icon" overflow="hidden"><defs></defs><path d="M6 6 26.1719 6 22.5859 2.4141 24 1 30 7 24 13 22.5859 11.5859 26.1719 8 6 8 6 15 4 15 4 8C4.00132 6.89598 4.89598 6.00132 6 6Z"/><path d="M9.4141 20.4141 5.8281 24 26 24 26 17 28 17 28 24C27.9987 25.104 27.104 25.9987 26 26L5.8281 26 9.414 29.5859 8 31 2 25 8 19Z"/><rect x="0" y="0" width="32" height="32" id="_Transparent_Rectangle_" fill="none"/></svg>