<svg width="2500" height="2500" viewBox="0 0 192.756 192.756" xmlns="http://www.w3.org/2000/svg" xmlns:xlink="http://www.w3.org/1999/xlink" overflow="hidden"><g fill-rule="evenodd" clip-rule="evenodd"><path d="M0 0 192.756 0 192.756 192.756 0 192.756 0 0Z" fill="#FFFFFF"/><path d="M182.135 95.469 168.416 95.469C168.586 93.75 169.799 92.031 171.99 92.031L188.168 92.031 188.168 88.728 171.248 88.728C164.508 88.728 161.742 93.852 161.742 98.772L180.619 98.772C181.258 98.772 182.775 98.907 182.775 100.457 182.775 102.008 181.461 102.143 179.203 102.21L159.517 102.21 159.517 88.728 153.72 88.728 153.72 102.21 142.665 102.21C139.327 102.21 138.958 99.75 138.958 98.436L138.958 88.728 128.407 88.728 119.811 94.458 112.059 88.728 89.444 88.728C82.703 88.728 78.658 93.413 78.085 97.491L82.747 97.491C80.883 98.748 79.563 100.451 78.846 102.204L65.682 102.21C62.345 102.21 61.974 99.75 61.974 98.436L61.974 88.728 56.177 88.728 56.177 97.93C56.177 104.267 60.626 105.514 62.783 105.514L109.129 105.514 117.791 99.716 125.645 105.514 134.78 105.514 122.612 96.548 132.622 89.84 132.622 98.705C132.622 104.434 138.218 105.514 139.768 105.514L182.069 105.514C184.159 105.514 189.923 105.244 189.923 100.66 189.923 96.076 185.674 95.469 182.135 95.469ZM108.186 102.21 86.377 102.21C86.545 100.491 88.433 98.772 90.624 98.772L103.5 98.772 103.5 95.469 85.905 95.469C86.073 93.75 87.961 92.031 90.152 92.031L104.848 92.031 104.848 90.11 115.028 97.66 108.186 102.21ZM25.826 112.895C33.438 112.895 40.189 110.238 44.374 106.143L40.603 106.161C37.038 109.159 31.826 111.046 25.919 111.046 14.9 111.046 6.298 104.48 6.298 96.379 6.298 87.036 14.9 81.712 25.919 81.712 26.62 81.714 27.18 82.037 26.76 82.645 24.471 85.401 17.952 94.271 16.763 96.193 14.417 99.982 14.473 104.648 20.22 104.975L44.386 104.975C45.621 104.975 45.934 104.396 46.38 103.792 47.9729 101.65 48.828 99.0486 48.817 96.379 48.813 89.417 43.914 84.199 36.705 81.632L35.589 83.299C41.579 85.509 45.54 89.975 45.54 96.379 45.54 97.491 45.377 98.574 45.069 99.615 44.801 100.519 44.278 101.284 43.287 101.284L23.997 101.284C21.526 101.284 22.481 98.735 23.396 97.5 24.723 95.121 31.992 85.214 33.742 83.368 34.188 82.691 35.438 81.289 33.715 80.752 31.255 80.168 28.597 79.862 25.825 79.862 13.128 79.862 2.841 86.382 2.834 96.379 2.828 106.469 13.128 112.895 25.826 112.895Z"/></g></svg>