<svg width="90" height="88" xmlns="http://www.w3.org/2000/svg" xmlns:xlink="http://www.w3.org/1999/xlink" xml:space="preserve" overflow="hidden"><defs><clipPath id="clip0"><rect x="688" y="341" width="90" height="88"/></clipPath></defs><g clip-path="url(#clip0)" transform="translate(-688 -341)"><path d="M733 385.5 733 359.7M750.4 428.5 750.4 419.957C750.4 411.988 744.974 405.303 737.544 403.334 740.56 401.737 742.616 398.595 742.616 394.974 742.616 389.74 738.324 385.497 733.029 385.497 727.734 385.497 723.442 389.74 723.442 394.974 723.442 398.595 725.495 401.737 728.514 403.334 721.081 405.303 715.6 411.988 715.6 419.957L715.6 428.5M698.2 359.706 698.2 374.039 766.353 374.039 766.353 359.7M741.694 342.5 724.294 342.5 724.294 359.7 741.694 359.7 741.694 342.5ZM698.2 342.5C693.395 342.5 689.5 346.35 689.5 351.1 689.5 355.85 693.395 359.7 698.2 359.7 703.005 359.7 706.9 355.85 706.9 351.1 706.9 346.35 703.005 342.5 698.2 342.5ZM766.454 342.5 756.409 359.7 776.5 359.7 766.454 342.5Z" stroke="#000000" stroke-width="2.64" stroke-linecap="butt" stroke-linejoin="round" stroke-miterlimit="10" stroke-opacity="1" fill="none" fill-rule="evenodd"/></g></svg>