<svg width="85" height="84" xmlns="http://www.w3.org/2000/svg" xmlns:xlink="http://www.w3.org/1999/xlink" xml:space="preserve" overflow="hidden"><defs><clipPath id="clip0"><rect x="1216" y="332" width="85" height="84"/></clipPath></defs><g clip-path="url(#clip0)" transform="translate(-1216 -332)"><path d="M1269.43 344.3 1253.03 355.1 1253.03 333.5 1269.43 344.3ZM1228.43 392.9C1222.4 392.9 1217.5 397.736 1217.5 403.7 1217.5 409.664 1222.4 414.5 1228.43 414.5 1234.47 414.5 1239.37 409.664 1239.37 403.7 1239.37 397.736 1234.47 392.9 1228.43 392.9ZM1299.5 376.7 1277.63 376.7 1277.63 414.5 1299.5 414.5 1299.5 376.7ZM1239.37 403.7 1269.43 403.7M1288.57 376.7 1288.57 344.3 1277.63 344.3M1253.03 344.3 1228.43 344.3 1228.43 386.15" stroke="#000000" stroke-width="2.63638" stroke-linecap="butt" stroke-linejoin="round" stroke-miterlimit="10" stroke-opacity="1" fill="none" fill-rule="evenodd"/></g></svg>