<svg width="83" height="83" xmlns="http://www.w3.org/2000/svg" xmlns:xlink="http://www.w3.org/1999/xlink" xml:space="preserve" overflow="hidden"><defs><clipPath id="clip0"><rect x="1112" y="833" width="83" height="83"/></clipPath></defs><g clip-path="url(#clip0)" transform="translate(-1112 -833)"><path d="M1140.56 877.7 1126.83 877.7 1126.83 861.5C1126.83 846.588 1138.77 834.5 1153.5 834.5 1168.23 834.5 1180.16 846.588 1180.16 861.5L1180.16 877.7 1166.43 877.7M1193.5 915.5C1193.5 893.9 1179.55 884.115 1162.47 880.014 1170.2 876.528 1175.6 868.696 1175.6 859.575L1175.6 858.495 1175.6 858.498C1168.1 857.499 1161.36 854.075 1156.17 849.029 1149.94 855.079 1141.48 858.8 1132.17 858.8 1131.91 858.8 1131.65 858.797 1131.4 858.792L1131.4 859.575C1131.4 868.698 1136.8 876.531 1144.53 880.014 1127.45 884.115 1113.5 893.9 1113.5 915.5M1153.5 869.6C1152.03 869.6 1150.83 870.81 1150.83 872.3 1150.83 873.79 1152.03 875 1153.5 875 1154.97 875 1156.17 873.79 1156.17 872.3 1156.17 870.81 1154.97 869.6 1153.5 869.6ZM1156.17 872.3C1164.17 872.3 1175.6 868.312 1175.6 858.495" stroke="#000000" stroke-width="2.64" stroke-linecap="butt" stroke-linejoin="round" stroke-miterlimit="10" stroke-opacity="1" fill="none" fill-rule="evenodd"/><path d="M1135 883 1153.5 912 1172 883" stroke="#000000" stroke-width="2.44283" stroke-linecap="butt" stroke-linejoin="round" stroke-miterlimit="10" stroke-opacity="1" fill="none" fill-rule="evenodd"/><path d="M1169 907 1185 907" stroke="#000000" stroke-width="2.44283" stroke-linecap="butt" stroke-linejoin="round" stroke-miterlimit="10" stroke-opacity="1" fill="none" fill-rule="evenodd"/></g></svg>