<svg width="85" height="86" xmlns="http://www.w3.org/2000/svg" xmlns:xlink="http://www.w3.org/1999/xlink" xml:space="preserve" overflow="hidden"><defs><clipPath id="clip0"><rect x="632" y="840" width="85" height="86"/></clipPath></defs><g clip-path="url(#clip0)" transform="translate(-632 -840)"><path d="M696.367 894.339 696.367 898.403M696.367 909.242 696.367 913.306M701.833 898.403 693.633 898.403C692.125 898.403 690.9 899.615 690.9 901.113 690.9 902.609 692.122 903.823 693.633 903.823L699.1 903.823C700.609 903.823 701.833 905.036 701.833 906.532 701.833 908.031 700.609 909.242 699.1 909.242L690.9 909.242M696.367 884.855C692.433 884.855 688.776 886.036 685.737 888.058 683.036 889.83 680.825 892.296 679.36 895.16 677.999 897.753 677.233 900.704 677.233 903.823 677.233 914.298 685.8 922.79 696.367 922.79 706.934 922.79 715.5 914.298 715.5 903.823 715.5 893.35 706.934 884.855 696.367 884.855ZM684.777 888.648C681.579 885.451 677.643 882.958 673.27 881.441 680.131 877.918 684.859 870.9 684.859 862.717 684.859 850.984 675.375 841.5 663.567 841.5 651.731 841.5 642.055 850.984 642.055 862.717 642.055 870.9 646.784 877.918 653.645 881.468 641.973 885.532 633.5 896.452 633.5 909.377L633.5 925.5" stroke="#000000" stroke-width="2.63638" stroke-linecap="butt" stroke-linejoin="round" stroke-miterlimit="10" stroke-opacity="1" fill="none" fill-rule="evenodd"/></g></svg>