<svg width="355.491" height="67.395" viewBox="0 0 355.491 67.395" xmlns="http://www.w3.org/2000/svg" xmlns:xlink="http://www.w3.org/1999/xlink" id="Layer_1" overflow="hidden"><g><path d="M254.599 47.848 254.599 43.075C252.435 44.97 247.931 45.063 243.962 45.774 239.997 46.586 236.4 47.938 236.4 52.626 236.4 57.395 240.084 58.571 244.232 58.571 254.24 58.57 254.599 50.641 254.599 47.848L254.599 47.848ZM88.982 37.578 109.798 37.578C108.626 31.086 105.833 27.664 99.614 27.664 91.502 27.664 89.162 33.969 88.982 37.578L88.982 37.578ZM134.873 37.578 155.693 37.578C154.517 31.086 151.728 27.664 145.505 27.664 137.392 27.664 135.053 33.969 134.873 37.578L134.873 37.578ZM225.584 35.688 213.06 35.688C212.255 30.457 208.912 27.665 203.599 27.665 195.404 27.665 192.689 35.962 192.689 42.806 192.689 49.47 195.31 57.49 203.322 57.49 209.275 57.49 212.693 53.705 213.513 48.033L224.392 48.033C226.576 41.721 233.025 39.9 239.458 39.017 247.302 37.849 254.599 38.115 254.599 32.888 254.599 27.4 250.814 26.583 246.302 26.583 241.443 26.583 238.286 30.634 237.841 35.677L225.584 35.688 225.584 35.688ZM355.42 45.68 321.81 45.68C322.165 53.797 326.134 57.489 333.248 57.489 338.381 57.489 342.529 54.337 343.342 51.458L354.612 51.458C350.999 62.439 343.342 67.134 332.803 67.134 321.444 67.134 313.412 61.091 310.369 51.677 309.928 63.329 299.521 67.134 289.119 67.134 278.904 67.134 268.928 63.525 267.396 52.724L267.396 55.509C267.396 59.743 267.849 63.978 269.021 65.868L256.037 65.868C255.588 64.43 255.232 62.899 255.139 61.368 251.092 65.602 245.139 67.134 239.459 67.134 231.381 67.134 224.811 63.431 223.748 55.493 220.201 63.071 212.912 67.134 203.416 67.134 191.451 67.134 182.826 59.954 180.518 49.204L180.518 65.868 167.721 65.868 167.721 45.68 134.873 45.68C135.228 53.797 139.197 57.489 146.322 57.489 151.455 57.489 155.599 54.337 156.408 51.458L167.674 51.458C164.069 62.439 156.408 67.134 145.865 67.134 132.24 67.134 123.427 58.454 122.217 45.681L88.982 45.681C89.337 53.798 93.31 57.49 100.427 57.49 105.56 57.49 109.708 54.338 110.521 51.459L121.787 51.459C118.182 62.44 110.521 67.135 99.975 67.135 85.288 67.135 76.186 57.041 76.186 42.619 76.186 28.658 85.827 18.021 99.975 18.021 113.206 18.021 120.733 27.298 122.338 38.689 123.971 26.712 133.08 18.021 145.865 18.021 158.021 18.021 165.353 25.849 167.72 35.951L167.72 1.539 180.517 1.539 180.517 36.808C182.736 25.683 190.892 18.019 203.689 18.019 213.841 18.019 223.216 22.941 225.232 33.054 226.814 20.769 237.15 18.019 246.947 18.019 256.224 18.019 267.396 20.093 267.396 31.273L267.396 50.734 279.376 50.734C279.47 56.316 284.157 58.57 289.208 58.57 292.892 58.57 297.583 57.132 297.583 52.625 297.583 48.746 292.267 47.394 283.075 45.418 275.684 43.797 268.298 41.184 268.298 32.98 268.298 21.089 278.572 18.019 288.568 18.019 298.763 18.019 308.127 21.445 309.119 32.886L296.955 32.886C296.6 27.937 292.803 26.581 288.221 26.581 285.33 26.581 281.096 27.132 281.096 30.909 281.096 35.507 288.299 36.128 295.608 37.847 301.217 39.128 306.737 40.968 309.139 45.48 309.045 44.542 309.014 43.593 309.014 42.617 309.014 28.656 318.655 18.019 332.803 18.019 348.662 18.019 356.318 31.355 355.42 45.68L355.42 45.68ZM321.81 37.578 342.619 37.578C341.447 31.086 338.662 27.664 332.443 27.664 324.33 27.664 321.99 33.969 321.81 37.578L321.81 37.578ZM68.924 5.312 68.924 19.285 78.291 19.285 78.291 26.703 68.924 26.703 68.924 50.91C68.924 55.23 70.002 56.316 74.326 56.316 75.678 56.316 76.939 56.222 78.291 55.96L78.291 65.96C76.127 66.323 73.338 66.405 70.811 66.405 62.971 66.405 56.127 64.6 56.127 55.323L56.127 26.703 38.307 26.703 38.303 20.722C37.849 12.98 32.349 11 25.596 11 21.088 11 15.862 12.887 15.862 18.293 15.862 23.242 18.928 23.883 35.057 28.031 39.741 29.203 54.162 32.172 54.162 46.765 54.162 58.57 44.881 67.394 27.396 67.394 13.158 67.394-0.178 60.363 0.001 44.507L13.696 44.507C13.696 53.069 20.364 56.405 27.938 56.405 32.891 56.405 40.461 54.967 40.461 48.385 40.461 41.444 30.82 40.268 21.359 37.756 11.804 35.233 2.16 31.537 2.16 19.467 2.162 6.312 14.599 0 26.224 0 39.208 0 51.181 5.477 51.958 19.285L56.126 19.285 56.126 5.312 68.924 5.312 68.924 5.312Z" fill="#646766"/></g></svg>