<svg viewBox="0 0 32 32" xmlns="http://www.w3.org/2000/svg" xmlns:xlink="http://www.w3.org/1999/xlink" id="icon" overflow="hidden"><defs></defs><rect x="6.34" y="19" width="11.31" height="2" transform="matrix(0.707107 -0.707107 0.707107 0.707107 -10.63 14.34)"/><path d="M17 30C16.8733 30.0003 16.7478 29.9766 16.63 29.93 16.2965 29.7971 16.0599 29.4955 16.01 29.14L15.01 22.14 17.01 21.86 17.76 27.13 21 24.52 21 17C20.9985 16.7342 21.1028 16.4787 21.29 16.29L25.36 12.22C27.0539 10.5376 28.0045 8.24747 28 5.86L28 4 26.14 4C23.7525 3.99546 21.4624 4.94607 19.78 6.64L15.71 10.71C15.5213 10.8972 15.2658 11.0015 15 11L7.48 11 4.87 14.26 10.14 15.01 9.86 17.01 2.86 16.01C2.50446 15.9601 2.20295 15.7235 2.07 15.39 1.93537 15.0541 1.99274 14.6716 2.22 14.39L6.22 9.39C6.40664 9.14751 6.69402 9.00381 7 9L14.59 9 18.36 5.22C20.4186 3.14981 23.2205 1.99016 26.14 2L28 2C29.1046 2 30 2.89543 30 4L30 5.86C30.0098 8.77951 28.8502 11.5814 26.78 13.64L23 17.41 23 25C22.9986 25.3043 22.8587 25.5914 22.62 25.78L17.62 29.78C17.4441 29.9212 17.2256 29.9987 17 30Z"/><rect x="0" y="0" width="32" height="32" id="_Transparent_Rectangle_" fill="none"/></svg>